<svg width="200" height="100" viewBox="0 0 200 100" fill="none" xmlns="http://www.w3.org/2000/svg">
<rect width="200" height="100" fill="white"/>
<path d="M49.3984 32.3281C51.2266 33.2656 52.6172 34.6094 53.5703 36.3594C54.5391 38.0938 55.0234 39.9688 55.0234 41.9844C55.0234 43.4531 54.7812 44.8594 54.2969 46.2031C53.8281 47.5469 53.1484 48.7266 52.2578 49.7422C51.3828 50.7422 50.3203 51.5391 49.0703 52.1328C47.8203 52.7266 46.4141 53.0234 44.8516 53.0234C43.5078 53.0234 42.2188 52.8281 40.9844 52.4375C39.75 52.0625 38.5703 51.5547 37.4453 50.9141C36.3359 50.2734 35.2734 49.5312 34.2578 48.6875C33.2578 47.8281 32.2891 46.9375 31.3516 46.0156L31.1641 45.8281C30.8828 45.5312 30.5391 45.2188 30.1328 44.8906C29.7422 44.5469 29.3281 44.2344 28.8906 43.9531C28.4531 43.6719 28 43.4375 27.5312 43.25C27.0781 43.0469 26.625 42.9453 26.1719 42.9453C25.125 42.9453 24.3047 43.2734 23.7109 43.9297C23.1172 44.5859 22.8203 45.4219 22.8203 46.4375C22.8203 47.3438 23.0469 48.1094 23.5 48.7344C23.9688 49.3594 24.7188 49.6719 25.75 49.6719C25.625 49.4062 25.5625 49.1172 25.5625 48.8047C25.5625 48.0391 25.8438 47.3828 26.4062 46.8359C26.9844 46.2891 27.6953 46.0156 28.5391 46.0156C29.3672 46.0156 30.0625 46.2891 30.625 46.8359C31.2031 47.3828 31.4922 48.0391 31.4922 48.8047C31.4922 48.9609 31.4766 49.125 31.4453 49.2969C31.4141 49.4531 31.3672 49.6094 31.3047 49.7656L31.2578 49.8594C31.0703 50.375 30.7656 50.8438 30.3438 51.2656C29.9375 51.7031 29.4766 52.0781 28.9609 52.3906C28.4453 52.7188 27.8984 52.9688 27.3203 53.1406C26.7422 53.3125 26.2031 53.3984 25.7031 53.3984C24.6719 53.3984 23.7266 53.2266 22.8672 52.8828C22.0078 52.5547 21.2656 52.0781 20.6406 51.4531C20.0156 50.8438 19.5234 50.1172 19.1641 49.2734C18.8203 48.4141 18.6484 47.4688 18.6484 46.4375C18.6484 45.3594 18.8359 44.3828 19.2109 43.5078C19.6016 42.6172 20.1328 41.8594 20.8047 41.2344C21.4766 40.6094 22.2734 40.125 23.1953 39.7812C24.1328 39.4219 25.125 39.2422 26.1719 39.2422C27 39.2422 27.7656 39.3672 28.4688 39.6172C29.1875 39.8516 29.8516 40.1641 30.4609 40.5547C31.0859 40.9297 31.6875 41.375 32.2656 41.8906C32.8438 42.4062 33.4062 42.9531 33.9531 43.5312L34.1406 43.7188C34.2969 43.875 34.3672 43.9453 34.3516 43.9297C34.3359 43.9141 34.4297 43.9844 34.6328 44.1406V24.5234L33.8125 23.6094L38.8047 22.0156V30.3594H38.7578C39.5547 30.7188 40.5469 30.8984 41.7344 30.8984H42.7891H42.8828C44.0703 30.8047 45.0312 30.5312 45.7656 30.0781C46.5 29.625 47.0625 29.1172 47.4531 28.5547C47.8594 27.9766 48.1328 27.3672 48.2734 26.7266C48.4141 26.0859 48.4844 25.5078 48.4844 24.9922C48.4844 23.5547 48.1719 22.4219 47.5469 21.5938C46.9375 20.75 46.2109 20.1328 45.3672 19.7422C44.5391 19.3359 43.7031 19.0781 42.8594 18.9688C42.0156 18.8594 41.3672 18.8047 40.9141 18.8047H39.7656C38.8594 18.8047 37.9297 18.9375 36.9766 19.2031C36.0234 19.4531 35.1328 19.8438 34.3047 20.375C33.4922 20.8906 32.8047 21.5469 32.2422 22.3438C31.6797 23.125 31.3359 24.0234 31.2109 25.0391C31.9141 25.1641 32.4922 25.4688 32.9453 25.9531C33.3984 26.4375 33.625 27 33.625 27.6406C33.625 28.375 33.3281 29 32.7344 29.5156C32.1406 30.0156 31.4297 30.2656 30.6016 30.2656C29.7891 30.2656 29.0938 30.0312 28.5156 29.5625C27.9531 29.0781 27.6562 28.4688 27.625 27.7344C27.5938 27.4688 27.5625 27.2266 27.5312 27.0078C27.5156 26.7891 27.5078 26.5469 27.5078 26.2812C27.5078 24.5938 27.8359 23.0625 28.4922 21.6875C29.1484 20.3125 30.0312 19.1406 31.1406 18.1719C32.25 17.1875 33.5469 16.4297 35.0312 15.8984C36.5156 15.3672 38.0938 15.1016 39.7656 15.1016H40.9141C42.7109 15.1016 44.3359 15.3359 45.7891 15.8047C47.2422 16.2578 48.4766 16.9219 49.4922 17.7969C50.5234 18.6562 51.3203 19.6953 51.8828 20.9141C52.4453 22.1328 52.7266 23.4922 52.7266 24.9922C52.7266 26.3984 52.4531 27.75 51.9062 29.0469C51.3594 30.3438 50.5234 31.4375 49.3984 32.3281ZM44.3594 49.5312C45.4219 49.5312 46.3516 49.3203 47.1484 48.8984C47.9453 48.4766 48.6172 47.9219 49.1641 47.2344C49.7109 46.5469 50.125 45.75 50.4062 44.8438C50.7031 43.9219 50.8516 42.9688 50.8516 41.9844C50.8516 39.5156 50.1172 37.6797 48.6484 36.4766C47.1953 35.2578 45.3203 34.6328 43.0234 34.6016C42.8672 34.6016 42.7031 34.6094 42.5312 34.625C42.375 34.6406 42.2188 34.6484 42.0625 34.6484H41.8281C40.7969 34.7109 39.7891 34.8047 38.8047 34.9297V47.6562L38.6641 47.5625C39.4922 48.125 40.3906 48.5938 41.3594 48.9688C42.3438 49.3438 43.3438 49.5312 44.3594 49.5312ZM61.3984 50H56.5938L57.0391 48.6875V19.6953H57.0625L56.2188 18.7344L60.9531 17.2578L60.9297 48.6875L61.3984 50ZM74.1484 26.375C75.8672 26.375 77.4141 26.6875 78.7891 27.3125C80.1641 27.9219 81.3281 28.7656 82.2812 29.8438C83.2344 30.9219 83.9609 32.1875 84.4609 33.6406C84.9766 35.0938 85.2344 36.6562 85.2344 38.3281C85.2344 39.9844 84.9766 41.5391 84.4609 42.9922C83.9609 44.4297 83.2344 45.6875 82.2812 46.7656C81.3281 47.8438 80.1641 48.6953 78.7891 49.3203C77.4141 49.9297 75.8672 50.2344 74.1484 50.2344C72.4141 50.2344 70.8594 49.9297 69.4844 49.3203C68.1094 48.6953 66.9453 47.8438 65.9922 46.7656C65.0391 45.6875 64.3125 44.4297 63.8125 42.9922C63.3125 41.5391 63.0625 39.9844 63.0625 38.3281C63.0625 36.6562 63.3125 35.0938 63.8125 33.6406C64.3125 32.1875 65.0391 30.9219 65.9922 29.8438C66.9453 28.7656 68.1094 27.9219 69.4844 27.3125C70.8594 26.6875 72.4141 26.375 74.1484 26.375ZM70.9375 46.0625C71.8438 46.5156 72.9141 46.7422 74.1484 46.7422C75.3828 46.7422 76.4453 46.5156 77.3359 46.0625C78.2422 45.6094 78.9844 45 79.5625 44.2344C80.1562 43.4531 80.5938 42.5547 80.875 41.5391C81.1562 40.5234 81.2969 39.4531 81.2969 38.3281C81.2969 37.2031 81.1562 36.1328 80.875 35.1172C80.5938 34.1016 80.1562 33.2109 79.5625 32.4453C78.9844 31.6797 78.2422 31.0703 77.3359 30.6172C76.4453 30.1641 75.3828 29.9375 74.1484 29.9375C72.9141 29.9375 71.8438 30.1641 70.9375 30.6172C70.0469 31.0703 69.3047 31.6797 68.7109 32.4453C68.1328 33.2109 67.6953 34.1016 67.3984 35.1172C67.1172 36.1328 66.9766 37.2031 66.9766 38.3281C66.9766 39.4531 67.1172 40.5312 67.3984 41.5625C67.6953 42.5781 68.1328 43.4688 68.7109 44.2344C69.3047 45 70.0469 45.6094 70.9375 46.0625ZM95.4531 35.8672C96.3125 36.2109 97.1719 36.6094 98.0312 37.0625C98.9062 37.5156 99.6875 38.0547 100.375 38.6797C101.078 39.2891 101.648 40 102.086 40.8125C102.523 41.625 102.742 42.5625 102.742 43.625C102.742 44.6562 102.492 45.5781 101.992 46.3906C101.492 47.2031 100.844 47.8906 100.047 48.4531C99.2656 49.0156 98.3906 49.4453 97.4219 49.7422C96.4531 50.0391 95.5 50.1875 94.5625 50.1875C93.5938 50.1875 92.625 50.0391 91.6562 49.7422C90.6875 49.4297 89.8125 48.9922 89.0312 48.4297C88.2656 47.8516 87.6406 47.1484 87.1562 46.3203C86.6875 45.4766 86.4531 44.5234 86.4531 43.4609C86.4531 42.9922 86.5156 42.5469 86.6406 42.125C86.7656 41.7031 86.9531 41.3359 87.2031 41.0234C87.4688 40.7109 87.7891 40.4609 88.1641 40.2734C88.5547 40.0859 89.0156 39.9922 89.5469 39.9922H89.6406C90.0156 40.0078 90.375 40.0938 90.7188 40.25C91.0625 40.3906 91.3594 40.5859 91.6094 40.8359C91.875 41.0859 92.0781 41.3828 92.2188 41.7266C92.375 42.0547 92.4531 42.4141 92.4531 42.8047C92.4531 43.8203 92 44.5938 91.0938 45.125C91.4844 45.625 92.0078 46 92.6641 46.25C93.3203 46.4844 93.9531 46.6016 94.5625 46.6016C94.9844 46.6016 95.4453 46.5391 95.9453 46.4141C96.4453 46.2734 96.9062 46.0781 97.3281 45.8281C97.75 45.5781 98.1016 45.2734 98.3828 44.9141C98.6641 44.5391 98.8047 44.1094 98.8047 43.625C98.8047 43.0156 98.6328 42.4766 98.2891 42.0078C97.9609 41.5234 97.5469 41.1094 97.0469 40.7656C96.5469 40.4062 96.0078 40.1016 95.4297 39.8516C94.8672 39.6016 94.3594 39.3906 93.9062 39.2188C93.1875 38.9375 92.4375 38.6094 91.6562 38.2344C90.8906 37.8438 90.1797 37.3906 89.5234 36.875C88.8828 36.3594 88.3516 35.7656 87.9297 35.0938C87.5078 34.4062 87.2969 33.6172 87.2969 32.7266C87.2969 31.6328 87.5156 30.6875 87.9531 29.8906C88.3906 29.0938 88.9609 28.4375 89.6641 27.9219C90.3828 27.3906 91.2031 27 92.125 26.75C93.0469 26.5 94 26.375 94.9844 26.375C95.8125 26.375 96.6406 26.5078 97.4688 26.7734C98.2969 27.0234 99.0391 27.3906 99.6953 27.875C100.352 28.3594 100.883 28.9609 101.289 29.6797C101.711 30.3828 101.922 31.1953 101.922 32.1172C101.922 32.5391 101.859 32.9844 101.734 33.4531C101.516 34 101.164 34.4375 100.68 34.7656C100.195 35.0781 99.6562 35.2344 99.0625 35.2344H99.0156C98.6875 35.2344 98.3594 35.1797 98.0312 35.0703C97.7031 34.9453 97.4062 34.7734 97.1406 34.5547C96.875 34.3359 96.6562 34.0781 96.4844 33.7812C96.3281 33.4844 96.25 33.1641 96.25 32.8203C96.25 32.4453 96.3594 32.0469 96.5781 31.625C96.8125 31.1875 97.1094 30.7891 97.4688 30.4297C96.625 29.8828 95.6719 29.6094 94.6094 29.6094H94.5625C93.4844 29.6094 92.6562 29.8516 92.0781 30.3359C91.5156 30.8047 91.2344 31.6016 91.2344 32.7266C91.2344 33.0859 91.3203 33.375 91.4922 33.5938C91.6641 33.8125 91.8281 33.9688 91.9844 34.0625C92.4375 34.4531 92.9531 34.7891 93.5312 35.0703C94.125 35.3516 94.7656 35.6172 95.4531 35.8672ZM112.938 35.8672C113.797 36.2109 114.656 36.6094 115.516 37.0625C116.391 37.5156 117.172 38.0547 117.859 38.6797C118.562 39.2891 119.133 40 119.57 40.8125C120.008 41.625 120.227 42.5625 120.227 43.625C120.227 44.6562 119.977 45.5781 119.477 46.3906C118.977 47.2031 118.328 47.8906 117.531 48.4531C116.75 49.0156 115.875 49.4453 114.906 49.7422C113.938 50.0391 112.984 50.1875 112.047 50.1875C111.078 50.1875 110.109 50.0391 109.141 49.7422C108.172 49.4297 107.297 48.9922 106.516 48.4297C105.75 47.8516 105.125 47.1484 104.641 46.3203C104.172 45.4766 103.938 44.5234 103.938 43.4609C103.938 42.9922 104 42.5469 104.125 42.125C104.25 41.7031 104.438 41.3359 104.688 41.0234C104.953 40.7109 105.273 40.4609 105.648 40.2734C106.039 40.0859 106.5 39.9922 107.031 39.9922H107.125C107.5 40.0078 107.859 40.0938 108.203 40.25C108.547 40.3906 108.844 40.5859 109.094 40.8359C109.359 41.0859 109.562 41.3828 109.703 41.7266C109.859 42.0547 109.938 42.4141 109.938 42.8047C109.938 43.8203 109.484 44.5938 108.578 45.125C108.969 45.625 109.492 46 110.148 46.25C110.805 46.4844 111.438 46.6016 112.047 46.6016C112.469 46.6016 112.93 46.5391 113.43 46.4141C113.93 46.2734 114.391 46.0781 114.812 45.8281C115.234 45.5781 115.586 45.2734 115.867 44.9141C116.148 44.5391 116.289 44.1094 116.289 43.625C116.289 43.0156 116.117 42.4766 115.773 42.0078C115.445 41.5234 115.031 41.1094 114.531 40.7656C114.031 40.4062 113.492 40.1016 112.914 39.8516C112.352 39.6016 111.844 39.3906 111.391 39.2188C110.672 38.9375 109.922 38.6094 109.141 38.2344C108.375 37.8438 107.664 37.3906 107.008 36.875C106.367 36.3594 105.836 35.7656 105.414 35.0938C104.992 34.4062 104.781 33.6172 104.781 32.7266C104.781 31.6328 105 30.6875 105.438 29.8906C105.875 29.0938 106.445 28.4375 107.148 27.9219C107.867 27.3906 108.688 27 109.609 26.75C110.531 26.5 111.484 26.375 112.469 26.375C113.297 26.375 114.125 26.5078 114.953 26.7734C115.781 27.0234 116.523 27.3906 117.18 27.875C117.836 28.3594 118.367 28.9609 118.773 29.6797C119.195 30.3828 119.406 31.1953 119.406 32.1172C119.406 32.5391 119.344 32.9844 119.219 33.4531C119 34 118.648 34.4375 118.164 34.7656C117.68 35.0781 117.141 35.2344 116.547 35.2344H116.5C116.172 35.2344 115.844 35.1797 115.516 35.0703C115.188 34.9453 114.891 34.7734 114.625 34.5547C114.359 34.3359 114.141 34.0781 113.969 33.7812C113.812 33.4844 113.734 33.1641 113.734 32.8203C113.734 32.4453 113.844 32.0469 114.062 31.625C114.297 31.1875 114.594 30.7891 114.953 30.4297C114.109 29.8828 113.156 29.6094 112.094 29.6094H112.047C110.969 29.6094 110.141 29.8516 109.562 30.3359C109 30.8047 108.719 31.6016 108.719 32.7266C108.719 33.0859 108.805 33.375 108.977 33.5938C109.148 33.8125 109.312 33.9688 109.469 34.0625C109.922 34.4531 110.438 34.7891 111.016 35.0703C111.609 35.3516 112.25 35.6172 112.938 35.8672ZM132.461 26.375C134.18 26.375 135.727 26.6875 137.102 27.3125C138.477 27.9219 139.641 28.7656 140.594 29.8438C141.547 30.9219 142.273 32.1875 142.773 33.6406C143.289 35.0938 143.547 36.6562 143.547 38.3281C143.547 39.9844 143.289 41.5391 142.773 42.9922C142.273 44.4297 141.547 45.6875 140.594 46.7656C139.641 47.8438 138.477 48.6953 137.102 49.3203C135.727 49.9297 134.18 50.2344 132.461 50.2344C130.727 50.2344 129.172 49.9297 127.797 49.3203C126.422 48.6953 125.258 47.8438 124.305 46.7656C123.352 45.6875 122.625 44.4297 122.125 42.9922C121.625 41.5391 121.375 39.9844 121.375 38.3281C121.375 36.6562 121.625 35.0938 122.125 33.6406C122.625 32.1875 123.352 30.9219 124.305 29.8438C125.258 28.7656 126.422 27.9219 127.797 27.3125C129.172 26.6875 130.727 26.375 132.461 26.375ZM129.25 46.0625C130.156 46.5156 131.227 46.7422 132.461 46.7422C133.695 46.7422 134.758 46.5156 135.648 46.0625C136.555 45.6094 137.297 45 137.875 44.2344C138.469 43.4531 138.906 42.5547 139.188 41.5391C139.469 40.5234 139.609 39.4531 139.609 38.3281C139.609 37.2031 139.469 36.1328 139.188 35.1172C138.906 34.1016 138.469 33.2109 137.875 32.4453C137.297 31.6797 136.555 31.0703 135.648 30.6172C134.758 30.1641 133.695 29.9375 132.461 29.9375C131.227 29.9375 130.156 30.1641 129.25 30.6172C128.359 31.0703 127.617 31.6797 127.023 32.4453C126.445 33.2109 126.008 34.1016 125.711 35.1172C125.43 36.1328 125.289 37.2031 125.289 38.3281C125.289 39.4531 125.43 40.5312 125.711 41.5625C126.008 42.5781 126.445 43.4688 127.023 44.2344C127.617 45 128.359 45.6094 129.25 46.0625ZM178.914 50H174.062L174.484 48.6875V34.0156C174.484 33.5 174.375 33.0078 174.156 32.5391C173.953 32.0547 173.672 31.6328 173.312 31.2734C172.969 30.8984 172.57 30.6016 172.117 30.3828C171.664 30.1641 171.188 30.0469 170.688 30.0312C169.719 30.0781 168.828 30.2656 168.016 30.5938C167.219 30.9219 166.531 31.4219 165.953 32.0938C165.391 32.75 164.945 33.5859 164.617 34.6016C164.305 35.6172 164.148 36.8438 164.148 38.2812V48.7344L164.594 50H159.742L160.234 48.6875C160.219 46.2344 160.203 43.7969 160.188 41.375C160.188 38.9375 160.188 36.4844 160.188 34.0156C160.172 33.4844 160.062 32.9844 159.859 32.5156C159.672 32.0469 159.406 31.6328 159.062 31.2734C158.719 30.8984 158.32 30.6016 157.867 30.3828C157.414 30.1641 156.914 30.0469 156.367 30.0312C155.383 30.0625 154.484 30.25 153.672 30.5938C152.859 30.9219 152.156 31.3984 151.562 32.0234C150.344 33.2891 149.734 35.375 149.734 38.2812L149.711 48.6875L150.18 50H145.375L145.82 48.6875V28.7188L145 27.8047L149.734 26.3047V29.9844C150.484 28.75 151.414 27.8438 152.523 27.2656C153.648 26.6719 154.93 26.375 156.367 26.375C157.164 26.375 157.93 26.4844 158.664 26.7031C159.398 26.9219 160.07 27.2422 160.68 27.6641C161.305 28.0703 161.852 28.5625 162.32 29.1406C162.805 29.7031 163.195 30.3359 163.492 31.0391C164.242 29.4297 165.219 28.25 166.422 27.5C167.641 26.75 169.062 26.375 170.688 26.375C171.75 26.375 172.75 26.5781 173.688 26.9844C174.625 27.3906 175.445 27.9375 176.148 28.625C176.867 29.3125 177.43 30.125 177.836 31.0625C178.258 31.9844 178.469 32.9688 178.469 34.0156V48.6875L178.914 50Z" fill="#DC329C"/>
<path d="M39.008 65.288C38.3467 65.288 37.8453 65.4587 37.504 65.8C37.1733 66.1413 36.9333 66.7227 36.784 67.544C36.784 67.5653 36.752 67.576 36.688 67.576C36.6347 67.576 36.608 67.5653 36.608 67.544C36.6507 67.16 36.6987 66.6587 36.752 66.04C36.8053 65.4213 36.832 64.9573 36.832 64.648C36.832 64.5947 36.8587 64.568 36.912 64.568C36.976 64.568 37.008 64.5947 37.008 64.648C37.008 64.8827 37.296 65 37.872 65C38.7893 65.032 39.8613 65.048 41.088 65.048C41.7173 65.048 42.384 65.0373 43.088 65.016L44.176 65C44.56 65 44.8427 64.9733 45.024 64.92C45.216 64.8667 45.3387 64.76 45.392 64.6C45.4027 64.5573 45.4347 64.536 45.488 64.536C45.5413 64.536 45.568 64.5573 45.568 64.6C45.536 64.9093 45.504 65.3787 45.472 66.008C45.44 66.6373 45.424 67.1493 45.424 67.544C45.424 67.5653 45.392 67.576 45.328 67.576C45.264 67.576 45.232 67.5653 45.232 67.544C45.2 66.712 45.0293 66.1307 44.72 65.8C44.4107 65.4587 43.8987 65.288 43.184 65.288C42.704 65.288 42.3627 65.3093 42.16 65.352C41.9573 65.3947 41.8187 65.4853 41.744 65.624C41.6693 65.7627 41.632 65.9973 41.632 66.328V73.704C41.632 74.0347 41.6693 74.2747 41.744 74.424C41.8187 74.5733 41.9627 74.6747 42.176 74.728C42.3893 74.7813 42.7253 74.808 43.184 74.808C43.216 74.808 43.232 74.84 43.232 74.904C43.232 74.968 43.216 75 43.184 75C42.832 75 42.5493 74.9947 42.336 74.984L41.088 74.968L39.888 74.984C39.6747 74.9947 39.3813 75 39.008 75C38.9867 75 38.976 74.968 38.976 74.904C38.976 74.84 38.9867 74.808 39.008 74.808C39.4667 74.808 39.8027 74.7813 40.016 74.728C40.2293 74.6747 40.3733 74.5733 40.448 74.424C40.5333 74.264 40.576 74.024 40.576 73.704V66.296C40.576 65.9653 40.5387 65.736 40.464 65.608C40.3893 65.4693 40.2507 65.384 40.048 65.352C39.8453 65.3093 39.4987 65.288 39.008 65.288ZM52.7941 68.84C52.7941 68.52 52.7621 68.2853 52.6981 68.136C52.6448 67.976 52.5328 67.864 52.3621 67.8C52.2021 67.736 51.9515 67.704 51.6101 67.704C51.5781 67.704 51.5621 67.672 51.5621 67.608C51.5621 67.544 51.5781 67.512 51.6101 67.512L52.3141 67.528C52.6981 67.5493 53.0235 67.56 53.2901 67.56C53.5248 67.56 53.8448 67.5493 54.2501 67.528L54.9701 67.512C55.0021 67.512 55.0181 67.544 55.0181 67.608C55.0181 67.672 55.0021 67.704 54.9701 67.704C54.6181 67.704 54.3568 67.736 54.1861 67.8C54.0261 67.8533 53.9141 67.9547 53.8501 68.104C53.7861 68.2533 53.7541 68.488 53.7541 68.808V73.704C53.7541 74.024 53.7861 74.264 53.8501 74.424C53.9141 74.5733 54.0261 74.6747 54.1861 74.728C54.3568 74.7813 54.6181 74.808 54.9701 74.808C55.0021 74.808 55.0181 74.84 55.0181 74.904C55.0181 74.968 55.0021 75 54.9701 75C54.6715 75 54.4315 74.9947 54.2501 74.984L53.2901 74.968L52.3141 74.984C52.1435 74.9947 51.9088 75 51.6101 75C51.5781 75 51.5621 74.968 51.5621 74.904C51.5621 74.84 51.5781 74.808 51.6101 74.808C51.9621 74.808 52.2181 74.7813 52.3781 74.728C52.5381 74.6747 52.6448 74.5733 52.6981 74.424C52.7621 74.264 52.7941 74.024 52.7941 73.704V68.84ZM47.7861 71.08H53.2101V71.368H47.7861V71.08ZM47.3541 68.808C47.3541 68.488 47.3221 68.2533 47.2581 68.104C47.2048 67.9547 47.0928 67.8533 46.9221 67.8C46.7621 67.736 46.5061 67.704 46.1541 67.704C46.1328 67.704 46.1221 67.672 46.1221 67.608C46.1221 67.544 46.1328 67.512 46.1541 67.512L46.8741 67.528C47.2795 67.5493 47.5941 67.56 47.8181 67.56C48.0848 67.56 48.4208 67.5493 48.8261 67.528L49.5141 67.512C49.5355 67.512 49.5461 67.544 49.5461 67.608C49.5461 67.672 49.5355 67.704 49.5141 67.704C49.1728 67.704 48.9168 67.736 48.7461 67.8C48.5755 67.864 48.4581 67.976 48.3941 68.136C48.3408 68.2853 48.3141 68.52 48.3141 68.84V73.704C48.3141 74.0347 48.3408 74.2747 48.3941 74.424C48.4581 74.5733 48.5701 74.6747 48.7301 74.728C48.8901 74.7813 49.1515 74.808 49.5141 74.808C49.5355 74.808 49.5461 74.84 49.5461 74.904C49.5461 74.968 49.5355 75 49.5141 75C49.2155 75 48.9808 74.9947 48.8101 74.984L47.8181 74.968L46.8741 74.984C46.6928 74.9947 46.4475 75 46.1381 75C46.1168 75 46.1061 74.968 46.1061 74.904C46.1061 74.84 46.1168 74.808 46.1381 74.808C46.4901 74.808 46.7461 74.7813 46.9061 74.728C47.0768 74.6747 47.1941 74.5733 47.2581 74.424C47.3221 74.264 47.3541 74.024 47.3541 73.704V68.808ZM56.0913 75C56.0699 75 56.0592 74.968 56.0592 74.904C56.0592 74.84 56.0699 74.808 56.0913 74.808C56.4433 74.808 56.6993 74.7813 56.8593 74.728C57.0193 74.6747 57.1259 74.5733 57.1793 74.424C57.2433 74.264 57.2753 74.024 57.2753 73.704V68.808C57.2753 68.488 57.2433 68.2533 57.1793 68.104C57.1259 67.9547 57.0193 67.8533 56.8593 67.8C56.6993 67.736 56.4433 67.704 56.0913 67.704C56.0699 67.704 56.0592 67.672 56.0592 67.608C56.0592 67.544 56.0699 67.512 56.0913 67.512H61.6593C61.7659 67.512 61.8193 67.5547 61.8193 67.64L61.8353 68.632C61.8459 68.8347 61.8513 69.0907 61.8513 69.4C61.8513 69.432 61.8193 69.448 61.7553 69.448C61.6913 69.448 61.6593 69.432 61.6593 69.4C61.6166 68.9093 61.4353 68.5093 61.1153 68.2C60.8059 67.88 60.4219 67.72 59.9633 67.72H59.5153C59.1419 67.72 58.8699 67.752 58.6993 67.816C58.5286 67.8693 58.4113 67.9707 58.3473 68.12C58.2833 68.2693 58.2513 68.504 58.2513 68.824V73.64C58.2513 73.9493 58.2833 74.184 58.3473 74.344C58.4113 74.4933 58.5286 74.6 58.6993 74.664C58.8806 74.7173 59.1526 74.744 59.5153 74.744H60.2833C60.7206 74.744 61.1046 74.5733 61.4353 74.232C61.7766 73.88 62.0059 73.4267 62.1233 72.872C62.1233 72.84 62.1499 72.824 62.2033 72.824C62.2673 72.824 62.2993 72.84 62.2993 72.872C62.2246 73.64 62.1873 74.2693 62.1873 74.76C62.1873 74.8453 62.1713 74.9093 62.1393 74.952C62.1073 74.984 62.0433 75 61.9473 75H56.0913ZM61.0193 71.56C60.9766 71.56 60.7419 71.528 60.3153 71.464C59.8993 71.3893 59.0779 71.352 57.8513 71.352V71.016C59.0673 71.016 59.8833 70.9893 60.2993 70.936C60.7259 70.8827 60.9659 70.856 61.0193 70.856C61.0726 70.856 61.0993 70.968 61.0993 71.192C61.0993 71.4373 61.0726 71.56 61.0193 71.56ZM67.3751 75C67.3538 75 67.3431 74.968 67.3431 74.904C67.3431 74.84 67.3538 74.808 67.3751 74.808C67.7805 74.808 68.0791 74.7813 68.2711 74.728C68.4631 74.6747 68.5911 74.5733 68.6551 74.424C68.7298 74.264 68.7671 74.024 68.7671 73.704V66.296C68.7671 65.976 68.7298 65.7413 68.6551 65.592C68.5911 65.4427 68.4631 65.3413 68.2711 65.288C68.0898 65.224 67.7965 65.192 67.3911 65.192C67.3698 65.192 67.3591 65.16 67.3591 65.096C67.3591 65.032 67.3698 65 67.3911 65H73.8231C73.9191 65 73.9671 65.048 73.9671 65.144L73.9991 67.112C73.9991 67.144 73.9671 67.1653 73.9031 67.176C73.8498 67.176 73.8231 67.16 73.8231 67.128C73.7911 66.5627 73.6205 66.1253 73.3111 65.816C73.0018 65.496 72.5911 65.336 72.0791 65.336H71.1031C70.7405 65.336 70.4685 65.3627 70.2871 65.416C70.1058 65.4693 69.9778 65.5653 69.9031 65.704C69.8285 65.8427 69.7911 66.0453 69.7911 66.312V73.64C69.7911 73.9813 69.8338 74.232 69.9191 74.392C70.0151 74.5413 70.1965 74.648 70.4631 74.712C70.7405 74.776 71.1671 74.808 71.7431 74.808C71.7751 74.808 71.7911 74.84 71.7911 74.904C71.7911 74.968 71.7751 75 71.7431 75C71.3058 75 70.9645 74.9947 70.7191 74.984L69.2791 74.968L68.1911 74.984C67.9991 74.9947 67.7271 75 67.3751 75ZM73.0071 71.464C73.0071 70.9947 72.8791 70.6587 72.6231 70.456C72.3778 70.2533 71.9618 70.152 71.3751 70.152H69.3111V69.816H71.4231C71.9885 69.816 72.3885 69.7307 72.6231 69.56C72.8685 69.3787 72.9911 69.0907 72.9911 68.696C72.9911 68.6747 73.0231 68.664 73.0871 68.664C73.1511 68.664 73.1831 68.6747 73.1831 68.696L73.1671 69.992C73.1671 70.3013 73.1725 70.536 73.1831 70.696L73.1991 71.464C73.1991 71.4853 73.1671 71.496 73.1031 71.496C73.0391 71.496 73.0071 71.4853 73.0071 71.464ZM77.5638 73.64C77.5638 73.9493 77.5904 74.1787 77.6438 74.328C77.7078 74.4773 77.8198 74.584 77.9798 74.648C78.1504 74.712 78.4011 74.744 78.7318 74.744H79.8038C80.3584 74.744 80.8011 74.568 81.1318 74.216C81.4731 73.864 81.7024 73.3787 81.8198 72.76C81.8198 72.7387 81.8411 72.728 81.8838 72.728C81.9158 72.728 81.9424 72.7333 81.9638 72.744C81.9958 72.7547 82.0118 72.7707 82.0118 72.792C81.9371 73.2827 81.8998 73.9387 81.8998 74.76C81.8998 74.8453 81.8784 74.9093 81.8358 74.952C81.8038 74.984 81.7451 75 81.6598 75H75.4038C75.3824 75 75.3717 74.968 75.3717 74.904C75.3717 74.84 75.3824 74.808 75.4038 74.808C75.7558 74.808 76.0118 74.7813 76.1718 74.728C76.3318 74.6747 76.4384 74.5733 76.4918 74.424C76.5451 74.264 76.5718 74.024 76.5718 73.704V68.808C76.5718 68.488 76.5398 68.2533 76.4758 68.104C76.4224 67.9547 76.3158 67.8533 76.1558 67.8C75.9958 67.736 75.7451 67.704 75.4038 67.704C75.3824 67.704 75.3717 67.672 75.3717 67.608C75.3717 67.544 75.3824 67.512 75.4038 67.512L76.1238 67.528C76.5291 67.5493 76.8438 67.56 77.0678 67.56C77.3344 67.56 77.6704 67.5493 78.0758 67.528L78.7478 67.512C78.7798 67.512 78.7958 67.544 78.7958 67.608C78.7958 67.672 78.7798 67.704 78.7478 67.704C78.3958 67.704 78.1398 67.736 77.9798 67.8C77.8198 67.8533 77.7078 67.96 77.6438 68.12C77.5904 68.2693 77.5638 68.504 77.5638 68.824V73.64ZM86.65 75.192C85.9033 75.192 85.2367 75.016 84.65 74.664C84.074 74.312 83.626 73.8373 83.306 73.24C82.986 72.6427 82.826 71.9973 82.826 71.304C82.826 70.472 83.0393 69.7573 83.466 69.16C83.9033 68.552 84.4527 68.0933 85.114 67.784C85.786 67.4747 86.4687 67.32 87.162 67.32C87.9087 67.32 88.5647 67.5067 89.13 67.88C89.706 68.2427 90.1433 68.7173 90.442 69.304C90.7513 69.8907 90.906 70.504 90.906 71.144C90.906 71.8587 90.714 72.5307 90.33 73.16C89.946 73.7787 89.4287 74.2747 88.778 74.648C88.1273 75.0107 87.418 75.192 86.65 75.192ZM87.066 74.856C87.898 74.856 88.5593 74.5627 89.05 73.976C89.5513 73.3893 89.802 72.5787 89.802 71.544C89.802 70.8293 89.674 70.1787 89.418 69.592C89.1727 69.0053 88.81 68.536 88.33 68.184C87.85 67.832 87.2793 67.656 86.618 67.656C85.7647 67.656 85.1033 67.944 84.634 68.52C84.1647 69.0853 83.93 69.88 83.93 70.904C83.93 71.64 84.0527 72.3067 84.298 72.904C84.554 73.5013 84.9167 73.976 85.386 74.328C85.866 74.68 86.426 74.856 87.066 74.856ZM103.068 67.512C103.1 67.512 103.116 67.544 103.116 67.608C103.116 67.672 103.1 67.704 103.068 67.704C102.748 67.704 102.476 67.7947 102.252 67.976C102.028 68.1573 101.82 68.4827 101.628 68.952L99.2444 74.984C99.2337 75.0267 99.175 75.048 99.0684 75.048C98.9617 75.048 98.903 75.0267 98.8924 74.984L95.9804 68.84C95.7564 68.3707 95.5804 68.0667 95.4524 67.928C95.3244 67.7787 95.1377 67.704 94.8924 67.704C94.871 67.704 94.8604 67.672 94.8604 67.608C94.8604 67.544 94.871 67.512 94.8924 67.512L95.4204 67.528C95.6764 67.5493 95.879 67.56 96.0284 67.56C96.2097 67.56 96.4177 67.5493 96.6524 67.528L97.0364 67.512C97.0577 67.512 97.0684 67.544 97.0684 67.608C97.0684 67.672 97.0577 67.704 97.0364 67.704C96.8977 67.704 96.7964 67.7147 96.7324 67.736C96.679 67.7573 96.6524 67.8053 96.6524 67.88C96.6524 67.9973 96.7537 68.264 96.9564 68.68L99.5004 73.928L99.0684 74.792L101.292 68.872C101.378 68.6587 101.42 68.456 101.42 68.264C101.42 67.8907 101.196 67.704 100.748 67.704C100.727 67.704 100.716 67.672 100.716 67.608C100.716 67.544 100.727 67.512 100.748 67.512L101.196 67.528C101.41 67.5493 101.612 67.56 101.804 67.56C101.996 67.56 102.22 67.5493 102.476 67.528L103.068 67.512ZM95.9324 74.984C95.9217 75.0267 95.863 75.048 95.7564 75.048C95.6497 75.048 95.591 75.0267 95.5804 74.984L92.6684 68.84C92.455 68.392 92.2684 68.0933 92.1084 67.944C91.9484 67.784 91.7297 67.704 91.4524 67.704C91.4204 67.704 91.4044 67.672 91.4044 67.608C91.4044 67.544 91.4204 67.512 91.4524 67.512L92.0764 67.528C92.3537 67.5493 92.5564 67.56 92.6844 67.56C92.9084 67.56 93.1697 67.5493 93.4684 67.528L93.9164 67.512C93.9377 67.512 93.9484 67.544 93.9484 67.608C93.9484 67.672 93.9377 67.704 93.9164 67.704C93.6284 67.704 93.4844 67.8373 93.4844 68.104C93.4844 68.264 93.5377 68.456 93.6444 68.68L96.1884 73.928L95.7564 74.792L97.2604 70.888L97.5004 71.112L95.9324 74.984ZM98.2204 68.776C98.3484 68.4347 98.4124 68.184 98.4124 68.024C98.4124 67.9067 98.375 67.8267 98.3004 67.784C98.2364 67.7307 98.135 67.704 97.9964 67.704C97.975 67.704 97.9644 67.672 97.9644 67.608C97.9644 67.544 97.975 67.512 97.9964 67.512C98.0924 67.512 98.2097 67.5227 98.3484 67.544C98.487 67.5547 98.6204 67.56 98.7484 67.56C98.919 67.56 99.1324 67.5493 99.3884 67.528L99.9324 67.512C99.9644 67.512 99.9804 67.544 99.9804 67.608C99.9804 67.672 99.9644 67.704 99.9324 67.704C99.6017 67.704 99.3297 67.784 99.1164 67.944C98.903 68.104 98.7057 68.4133 98.5244 68.872L97.6444 71.112L97.4364 70.888L98.2204 68.776ZM103.576 75C103.554 75 103.544 74.968 103.544 74.904C103.544 74.84 103.554 74.808 103.576 74.808C103.928 74.808 104.184 74.7813 104.344 74.728C104.504 74.6747 104.61 74.5733 104.664 74.424C104.728 74.264 104.76 74.024 104.76 73.704V68.808C104.76 68.488 104.728 68.2533 104.664 68.104C104.61 67.9547 104.504 67.8533 104.344 67.8C104.184 67.736 103.928 67.704 103.576 67.704C103.554 67.704 103.544 67.672 103.544 67.608C103.544 67.544 103.554 67.512 103.576 67.512H109.144C109.25 67.512 109.304 67.5547 109.304 67.64L109.32 68.632C109.33 68.8347 109.336 69.0907 109.336 69.4C109.336 69.432 109.304 69.448 109.24 69.448C109.176 69.448 109.144 69.432 109.144 69.4C109.101 68.9093 108.92 68.5093 108.6 68.2C108.29 67.88 107.906 67.72 107.448 67.72H107C106.626 67.72 106.354 67.752 106.184 67.816C106.013 67.8693 105.896 67.9707 105.832 68.12C105.768 68.2693 105.736 68.504 105.736 68.824V73.64C105.736 73.9493 105.768 74.184 105.832 74.344C105.896 74.4933 106.013 74.6 106.184 74.664C106.365 74.7173 106.637 74.744 107 74.744H107.768C108.205 74.744 108.589 74.5733 108.92 74.232C109.261 73.88 109.49 73.4267 109.608 72.872C109.608 72.84 109.634 72.824 109.688 72.824C109.752 72.824 109.784 72.84 109.784 72.872C109.709 73.64 109.672 74.2693 109.672 74.76C109.672 74.8453 109.656 74.9093 109.624 74.952C109.592 74.984 109.528 75 109.432 75H103.576ZM108.504 71.56C108.461 71.56 108.226 71.528 107.8 71.464C107.384 71.3893 106.562 71.352 105.336 71.352V71.016C106.552 71.016 107.368 70.9893 107.784 70.936C108.21 70.8827 108.45 70.856 108.504 70.856C108.557 70.856 108.584 70.968 108.584 71.192C108.584 71.4373 108.557 71.56 108.504 71.56ZM114.374 74.808C114.395 74.808 114.406 74.84 114.406 74.904C114.406 74.968 114.395 75 114.374 75C114.075 75 113.846 74.9947 113.686 74.984L112.678 74.968L111.734 74.984C111.552 74.9947 111.307 75 110.998 75C110.976 75 110.965 74.968 110.965 74.904C110.965 74.84 110.976 74.808 110.998 74.808C111.35 74.808 111.606 74.7813 111.766 74.728C111.936 74.6747 112.054 74.5733 112.118 74.424C112.182 74.264 112.214 74.024 112.214 73.704V68.808C112.214 68.488 112.182 68.2533 112.118 68.104C112.064 67.9547 111.952 67.8533 111.782 67.8C111.622 67.736 111.366 67.704 111.014 67.704C110.992 67.704 110.982 67.672 110.982 67.608C110.982 67.544 110.992 67.512 111.014 67.512L111.75 67.528C112.134 67.5493 112.443 67.56 112.678 67.56C112.87 67.56 113.046 67.5547 113.206 67.544C113.376 67.5333 113.52 67.5227 113.638 67.512C113.979 67.48 114.294 67.464 114.582 67.464C115.275 67.464 115.803 67.5973 116.166 67.864C116.528 68.1307 116.71 68.5147 116.71 69.016C116.71 69.4533 116.582 69.8587 116.326 70.232C116.07 70.6053 115.718 70.904 115.27 71.128C114.822 71.3413 114.331 71.448 113.798 71.448C113.456 71.448 113.163 71.4267 112.918 71.384L112.902 71.064C113.168 71.1387 113.504 71.176 113.91 71.176C114.571 71.176 115.03 71.032 115.286 70.744C115.552 70.4453 115.686 70.0133 115.686 69.448C115.686 68.2747 115.179 67.688 114.166 67.688C113.76 67.688 113.494 67.7733 113.366 67.944C113.248 68.1147 113.19 68.4133 113.19 68.84V73.704C113.19 74.0347 113.216 74.2747 113.27 74.424C113.323 74.5733 113.43 74.6747 113.59 74.728C113.75 74.7813 114.011 74.808 114.374 74.808ZM119.126 74.808C119.147 74.808 119.158 74.84 119.158 74.904C119.158 74.968 119.147 75 119.126 75H117.254C117.062 75 116.715 74.6693 116.214 74.008C115.712 73.3467 115.115 72.44 114.422 71.288L115.27 70.952C115.888 71.9653 116.406 72.744 116.822 73.288C117.238 73.832 117.622 74.2213 117.974 74.456C118.336 74.6907 118.72 74.808 119.126 74.808ZM125.039 66.872C125.039 67.288 125.14 67.6507 125.343 67.96C125.545 68.2693 125.791 68.5307 126.079 68.744C126.367 68.9467 126.772 69.208 127.295 69.528C127.849 69.8587 128.281 70.136 128.591 70.36C128.9 70.584 129.161 70.872 129.375 71.224C129.599 71.5653 129.711 71.976 129.711 72.456C129.711 72.968 129.583 73.432 129.327 73.848C129.071 74.264 128.692 74.5947 128.191 74.84C127.7 75.0747 127.108 75.192 126.415 75.192C125.593 75.192 124.841 75.0053 124.159 74.632C124.105 74.6 124.068 74.5627 124.047 74.52C124.036 74.4773 124.025 74.4133 124.015 74.328L123.807 72.152C123.796 72.1093 123.817 72.0827 123.871 72.072C123.935 72.0613 123.972 72.0773 123.983 72.12C124.143 72.8773 124.457 73.5387 124.927 74.104C125.396 74.6587 126.015 74.936 126.783 74.936C127.316 74.936 127.764 74.792 128.127 74.504C128.5 74.2053 128.687 73.736 128.687 73.096C128.687 72.616 128.58 72.2 128.367 71.848C128.153 71.496 127.892 71.208 127.583 70.984C127.284 70.7493 126.873 70.4773 126.351 70.168C125.839 69.8587 125.433 69.592 125.135 69.368C124.847 69.144 124.601 68.8613 124.399 68.52C124.196 68.1787 124.095 67.7787 124.095 67.32C124.095 66.7867 124.233 66.3333 124.511 65.96C124.799 65.576 125.167 65.2933 125.615 65.112C126.073 64.92 126.559 64.824 127.071 64.824C127.7 64.824 128.324 64.952 128.943 65.208C129.103 65.2613 129.183 65.352 129.183 65.48L129.295 67.304C129.295 67.3573 129.263 67.384 129.199 67.384C129.145 67.384 129.113 67.3627 129.103 67.32C129.028 66.7653 128.804 66.2533 128.431 65.784C128.057 65.304 127.519 65.064 126.815 65.064C126.217 65.064 125.769 65.24 125.471 65.592C125.183 65.9333 125.039 66.36 125.039 66.872ZM132.978 67.72C132.573 67.72 132.253 67.7787 132.018 67.896C131.783 68.0027 131.597 68.1893 131.458 68.456C131.33 68.7227 131.229 69.1013 131.154 69.592C131.154 69.6133 131.122 69.624 131.058 69.624C131.005 69.624 130.978 69.6133 130.978 69.592C131.01 69.3467 131.047 68.952 131.09 68.408C131.133 67.864 131.154 67.448 131.154 67.16C131.154 67.1067 131.186 67.08 131.25 67.08C131.314 67.08 131.346 67.1067 131.346 67.16C131.346 67.2987 131.426 67.3893 131.586 67.432C131.746 67.464 131.943 67.48 132.178 67.48C133.117 67.5013 133.922 67.512 134.594 67.512L135.986 67.496C136.178 67.4853 136.429 67.48 136.738 67.48C137.122 67.48 137.405 67.4587 137.586 67.416C137.767 67.3627 137.885 67.256 137.938 67.096C137.959 67.064 137.997 67.048 138.05 67.048C138.103 67.048 138.13 67.064 138.13 67.096C138.066 68.248 138.034 69.08 138.034 69.592C138.034 69.6133 138.002 69.624 137.938 69.624C137.885 69.624 137.858 69.6133 137.858 69.592C137.847 69.112 137.789 68.7387 137.682 68.472C137.586 68.2053 137.421 68.0133 137.186 67.896C136.951 67.7787 136.626 67.72 136.21 67.72C135.751 67.72 135.442 67.7947 135.282 67.944C135.133 68.0827 135.058 68.3707 135.058 68.808V73.704C135.058 74.0347 135.09 74.2747 135.154 74.424C135.218 74.5733 135.341 74.6747 135.522 74.728C135.714 74.7813 136.018 74.808 136.434 74.808C136.466 74.808 136.482 74.84 136.482 74.904C136.482 74.968 136.466 75 136.434 75C136.103 75 135.847 74.9947 135.666 74.984L134.546 74.968L133.474 74.984C133.282 74.9947 133.015 75 132.674 75C132.653 75 132.642 74.968 132.642 74.904C132.642 74.84 132.653 74.808 132.674 74.808C133.079 74.808 133.378 74.7813 133.57 74.728C133.762 74.6747 133.89 74.5733 133.954 74.424C134.029 74.264 134.066 74.024 134.066 73.704V68.776C134.066 68.4667 134.039 68.2427 133.986 68.104C133.943 67.9547 133.847 67.8533 133.698 67.8C133.549 67.7467 133.309 67.72 132.978 67.72ZM142.916 75.192C142.169 75.192 141.502 75.016 140.916 74.664C140.34 74.312 139.892 73.8373 139.572 73.24C139.252 72.6427 139.092 71.9973 139.092 71.304C139.092 70.472 139.305 69.7573 139.732 69.16C140.169 68.552 140.718 68.0933 141.38 67.784C142.052 67.4747 142.734 67.32 143.428 67.32C144.174 67.32 144.83 67.5067 145.396 67.88C145.972 68.2427 146.409 68.7173 146.708 69.304C147.017 69.8907 147.172 70.504 147.172 71.144C147.172 71.8587 146.98 72.5307 146.596 73.16C146.212 73.7787 145.694 74.2747 145.044 74.648C144.393 75.0107 143.684 75.192 142.916 75.192ZM143.332 74.856C144.164 74.856 144.825 74.5627 145.316 73.976C145.817 73.3893 146.068 72.5787 146.068 71.544C146.068 70.8293 145.94 70.1787 145.684 69.592C145.438 69.0053 145.076 68.536 144.596 68.184C144.116 67.832 143.545 67.656 142.884 67.656C142.03 67.656 141.369 67.944 140.9 68.52C140.43 69.0853 140.196 69.88 140.196 70.904C140.196 71.64 140.318 72.3067 140.564 72.904C140.82 73.5013 141.182 73.976 141.652 74.328C142.132 74.68 142.692 74.856 143.332 74.856ZM151.686 74.808C151.707 74.808 151.718 74.84 151.718 74.904C151.718 74.968 151.707 75 151.686 75C151.387 75 151.158 74.9947 150.998 74.984L149.99 74.968L149.046 74.984C148.865 74.9947 148.619 75 148.31 75C148.289 75 148.278 74.968 148.278 74.904C148.278 74.84 148.289 74.808 148.31 74.808C148.662 74.808 148.918 74.7813 149.078 74.728C149.249 74.6747 149.366 74.5733 149.43 74.424C149.494 74.264 149.526 74.024 149.526 73.704V68.808C149.526 68.488 149.494 68.2533 149.43 68.104C149.377 67.9547 149.265 67.8533 149.094 67.8C148.934 67.736 148.678 67.704 148.326 67.704C148.305 67.704 148.294 67.672 148.294 67.608C148.294 67.544 148.305 67.512 148.326 67.512L149.062 67.528C149.446 67.5493 149.755 67.56 149.99 67.56C150.182 67.56 150.358 67.5547 150.518 67.544C150.689 67.5333 150.833 67.5227 150.95 67.512C151.291 67.48 151.606 67.464 151.894 67.464C152.587 67.464 153.115 67.5973 153.478 67.864C153.841 68.1307 154.022 68.5147 154.022 69.016C154.022 69.4533 153.894 69.8587 153.638 70.232C153.382 70.6053 153.03 70.904 152.582 71.128C152.134 71.3413 151.643 71.448 151.11 71.448C150.769 71.448 150.475 71.4267 150.23 71.384L150.214 71.064C150.481 71.1387 150.817 71.176 151.222 71.176C151.883 71.176 152.342 71.032 152.598 70.744C152.865 70.4453 152.998 70.0133 152.998 69.448C152.998 68.2747 152.491 67.688 151.478 67.688C151.073 67.688 150.806 67.7733 150.678 67.944C150.561 68.1147 150.502 68.4133 150.502 68.84V73.704C150.502 74.0347 150.529 74.2747 150.582 74.424C150.635 74.5733 150.742 74.6747 150.902 74.728C151.062 74.7813 151.323 74.808 151.686 74.808ZM156.438 74.808C156.459 74.808 156.47 74.84 156.47 74.904C156.47 74.968 156.459 75 156.438 75H154.566C154.374 75 154.027 74.6693 153.526 74.008C153.025 73.3467 152.427 72.44 151.734 71.288L152.582 70.952C153.201 71.9653 153.718 72.744 154.134 73.288C154.55 73.832 154.934 74.2213 155.286 74.456C155.649 74.6907 156.033 74.808 156.438 74.808ZM156.841 75C156.82 75 156.809 74.968 156.809 74.904C156.809 74.84 156.82 74.808 156.841 74.808C157.193 74.808 157.449 74.7813 157.609 74.728C157.769 74.6747 157.876 74.5733 157.929 74.424C157.993 74.264 158.025 74.024 158.025 73.704V68.808C158.025 68.488 157.993 68.2533 157.929 68.104C157.876 67.9547 157.769 67.8533 157.609 67.8C157.449 67.736 157.193 67.704 156.841 67.704C156.82 67.704 156.809 67.672 156.809 67.608C156.809 67.544 156.82 67.512 156.841 67.512H162.409C162.516 67.512 162.569 67.5547 162.569 67.64L162.585 68.632C162.596 68.8347 162.601 69.0907 162.601 69.4C162.601 69.432 162.569 69.448 162.505 69.448C162.441 69.448 162.409 69.432 162.409 69.4C162.367 68.9093 162.185 68.5093 161.865 68.2C161.556 67.88 161.172 67.72 160.713 67.72H160.265C159.892 67.72 159.62 67.752 159.449 67.816C159.279 67.8693 159.161 67.9707 159.097 68.12C159.033 68.2693 159.001 68.504 159.001 68.824V73.64C159.001 73.9493 159.033 74.184 159.097 74.344C159.161 74.4933 159.279 74.6 159.449 74.664C159.631 74.7173 159.903 74.744 160.265 74.744H161.033C161.471 74.744 161.855 74.5733 162.185 74.232C162.527 73.88 162.756 73.4267 162.873 72.872C162.873 72.84 162.9 72.824 162.953 72.824C163.017 72.824 163.049 72.84 163.049 72.872C162.975 73.64 162.937 74.2693 162.937 74.76C162.937 74.8453 162.921 74.9093 162.889 74.952C162.857 74.984 162.793 75 162.697 75H156.841ZM161.769 71.56C161.727 71.56 161.492 71.528 161.065 71.464C160.649 71.3893 159.828 71.352 158.601 71.352V71.016C159.817 71.016 160.633 70.9893 161.049 70.936C161.476 70.8827 161.716 70.856 161.769 70.856C161.823 70.856 161.849 70.968 161.849 71.192C161.849 71.4373 161.823 71.56 161.769 71.56Z" fill="black"/>
</svg>
