<svg width="67" height="67" viewBox="0 0 67 67" fill="none" xmlns="http://www.w3.org/2000/svg">
<path d="M56.9499 54.4375L15.075 12.5625M28.4749 29.1494C27.4325 30.2987 26.7999 31.8083 26.7999 33.4618C26.7999 37.0624 29.7996 39.9813 33.4999 39.9813C35.2061 39.9813 36.7632 39.3608 37.9461 38.339M57.0583 39.9813C59.3648 36.5285 60.2999 33.7125 60.2999 33.7125C60.2999 33.7125 54.2012 14.2375 33.4999 14.2375C32.3378 14.2375 31.2216 14.2989 30.1499 14.4148M48.5749 48.4339C44.7297 50.8869 39.7793 52.6216 33.4999 52.5189C13.0564 52.1845 6.69995 33.7125 6.69995 33.7125C6.69995 33.7125 9.65313 24.2821 18.425 18.5459" stroke="black" stroke-width="2" stroke-linecap="round"/>
</svg>
